<?xml version="1.0" encoding="utf-8"?>
<!-- Generator: Adobe Illustrator 22.0.1, SVG Export Plug-In . SVG Version: 6.00 Build 0)  -->
<svg version="1.1" id="Layer_1" xmlns="http://www.w3.org/2000/svg" xmlns:xlink="http://www.w3.org/1999/xlink" x="0px" y="0px"
	 viewBox="0 0 640.7 242.2" style="enable-background:new 0 0 640.7 242.2;" xml:space="preserve">
<style type="text/css">
	.st0{clip-path:url(#SVGID_2_);fill:#6058A8;}
</style>
<g>
	<defs>
		<rect id="SVGID_1_" x="-109" y="-283" width="848.7" height="799.2"/>
	</defs>
	<clipPath id="SVGID_2_">
		<use xlink:href="#SVGID_1_"  style="overflow:visible;"/>
	</clipPath>
	<path class="st0" d="M2.9,77.4c0.7-3,1.4-5.9,2.1-8.9c5.8-22.7,24.6-39.2,47.8-42.9c22.9-3.6,45.6-8,68.4-11.9
		c12.2-2.1,24.3-4.7,36.6-5.8c28.7-2.6,55.6,18.5,60.3,49.3c3.8,24.4,8.7,48.6,12.7,73c2.1,12.9,5.7,25.6,5.1,39
		c-1.1,24.5-19.9,47.2-44.1,51.9c-23.2,4.5-46.6,8.4-69.9,12.5c-12.5,2.2-25.1,4.3-37.6,6.5c-0.7,0.5-3.2,0.5-3.8,0.5
		c-2.9,0.9-4.7,0.1-7.3-0.2c-0.8-0.3-1.6-0.3-2.4-0.5c-21.8-3.2-37.2-15.1-45.7-35.3c-2.5-5.8-3.4-12.4-4.6-18.7
		c-4.9-27.2-9.6-54.4-14.5-81.6c-1-5.6-2.2-11.3-3.3-16.9V77.4z M66.7,58.1c-0.5,13.6-0.9,27.2-1.4,40.7c-0.3,7.7-0.5,15.5-0.8,23.2
		c-0.7,18.5-1.4,37.1-2.3,55.6c-0.2,3.6,1.8,3.8,4.3,3.6c2.4-0.2,5.6,1.2,5.7-3.5c0.6-16.9,1.6-33.7,2.1-50.6
		c0.3-11.8,0.1-23.7,0.1-35.6c4.8,26.5,8.9,52.9,13.2,79.3c1.4,8.7,1.7,8.6,9.4,8.3c2.1-0.1,2.9-0.7,3.2-2.8
		c2.7-16.9,5.6-33.7,8.4-50.6c1.9-11.4,3.7-22.7,5.5-34.1c0.9,12.6,0.7,25.1,0.9,37.6c0.3,15.9,1,31.7,1.6,47.5
		c0.2,4.4,0.6,4.4,6.5,4.5c3.7,0.1,4.2-1.5,4.1-4.7c-0.9-18.5-1.6-37.1-2.3-55.6c-0.7-18.4-1.2-36.9-1.8-55.3
		c-0.1-2.5-0.5-5.1-0.8-8.1c-3,0-5.8,0.2-8.6,0c-2.9-0.2-3.8,1-4.2,3.7c-0.7,5.7-1.6,11.5-2.5,17.2c-4.1,26.7-8.3,53.4-12.4,80.1
		c-1.7-12.3-3.4-24.6-5.2-37c-2.6-17.7-5.5-35.3-8-53C79.8,56.7,79.5,56.3,66.7,58.1 M142,119.5c0,19.1,0.1,38.2-0.1,57.3
		c0,3,0.7,4.4,4.1,4.4c11.9-0.1,23.8-0.2,35.6,0c4.1,0.1,4.1-2.3,4.2-5.2c0-2.9-0.5-4.6-4-4.5c-8.5,0.2-17,0-25.6,0.1
		c-2.6,0-3.8-0.6-3.7-3.5c0.2-5.3,0.2-10.6,0-15.9c-0.1-3,1.1-3.8,3.9-3.7c6.3,0.1,12.7-0.1,19,0.1c4.2,0.1,3.5-2.7,3.6-5.3
		c0.1-2.6-0.2-4.5-3.6-4.4c-6.3,0.2-12.7-0.1-19,0.1c-2.8,0.1-3.8-0.8-3.8-3.7c0.1-21.7,0.1-43.4,0-65.1c0-3,1.1-3.7,3.9-3.6
		c8.4,0.1,16.8-0.1,25.2,0.1c3.7,0.1,4.3-1.5,4.3-4.6c0-3-0.4-4.8-4.2-4.7c-11.7,0.2-23.5,0.2-35.2,0c-3.7-0.1-4.5,1.3-4.5,4.7
		C142.1,81.3,142,100.4,142,119.5"/>
	<path class="st0" d="M315.9,85.5c-0.3,0-0.6,0-0.8-0.1c-0.1-0.9-0.2-1.8-0.3-2.6c-0.6-5.5-0.9-11-1.8-16.5c-2.9-16.8-6-33.5-9-50.2
		c-1.5-8.1,0.5-6.6-8.1-6.7c-0.2,0-0.4,0-0.5,0c-1.4-0.1-1.9,0.5-1.9,1.9c-0.3,8.5-0.7,17-1,25.5c-0.3,8.2-0.5,16.5-0.7,24.8
		c-0.2,5.5-0.6,11-0.8,16.6c-0.3,7.4-0.5,14.9-0.7,22.3c0,0.5,0.3,1.4,0.5,1.4c2,0.2,4,0.5,5.9,0.1c0.7-0.2,1.3-2.2,1.3-3.4
		c0.5-9.3,0.9-18.7,1.1-28c0.3-12.4,0.4-24.9,0.6-37.3c0-0.8,0.1-1.5,0.2-2.3c0.8,1,1.1,2.1,1.3,3.2c1,7.7,1.8,15.5,3,23.1
		c2,12.3,4.2,24.6,6.4,36.9c1.1,6.2,1.1,6.2,7.3,5.7c0.7-0.1,1.9-1,2-1.7c0.8-3.4,1.4-6.9,2-10.4c2.3-13.7,4.6-27.5,6.8-41.2
		c0.8-5,1.6-10.1,2.3-15.1c0.3,0,0.5,0,0.8,0.1c0,0.9,0,1.9,0,2.8c-0.2,5-0.6,10-0.5,14.9c0.4,16.2,1,32.4,1.5,48.7
		c0.1,4.6-0.5,4.2,4.3,4.2c0.1,0,0.2,0,0.3,0c2.6,0.4,3.5-0.5,3.4-3.2c-0.6-12.9-1.1-25.9-1.6-38.9c-0.6-14.6-1.1-29.2-1.6-43.8
		C337,9,337,9,329.4,9.4c-1.4,0.1-2,0.5-2.3,2c-1.1,7.2-2.3,14.3-3.4,21.4c-2.4,15.6-4.6,31.1-6.9,46.7
		C316.5,81.5,316.2,83.5,315.9,85.5"/>
	<path class="st0" d="M503.7,49c0,11.9-0.1,23.8,0,35.7c0.1,13.2,12.2,21.8,24.7,17.6c7-2.4,11.9-9.2,12-17.1c0.1-12,0-24,0.1-35.9
		c0-12.3,0-24.5,0-36.8c0-0.9-0.2-2.4-0.5-2.5c-2.2-0.2-4.5-0.4-6.7-0.1c-0.4,0.1-0.8,2.2-0.8,3.4c0,22.5,0,45,0,67.5
		c0,2.1-0.1,4.2-0.4,6.2c-0.6,5.4-4.1,8.7-9.5,9.1c-4.5,0.3-8.6-2.5-9.8-7.4c-0.7-2.7-1-5.5-1-8.3c-0.1-22,0-43.9,0-65.9
		c0-5.8,0.5-4.7-4.9-5c-2.4-0.1-3.1,0.6-3.1,3C503.7,24.6,503.7,36.8,503.7,49"/>
	<path class="st0" d="M556.6,55.8c0,14.6,0,29.2,0,43.8c0,2,0.5,2.7,2.6,2.7c9.4-0.1,18.9-0.1,28.3,0c1.9,0,2.7-0.5,2.5-2.5
		c-0.1-0.6-0.1-1.3,0-1.9c0.4-2.4-0.6-3.1-3-3.1c-6.3,0.1-12.7,0-19.1,0.1c-2.2,0-3-0.8-3-3c0.1-3.8,0.1-7.6,0-11.4
		c-0.1-2,0.7-2.7,2.7-2.7c4.3,0.1,8.5,0.1,12.8,0c5.2,0,4.5,0.7,4.7-4.6c0.1-2-0.6-2.7-2.6-2.6c-4.9,0.1-9.8,0-14.7,0.1
		c-2.1,0.1-2.9-0.5-2.9-2.7c0.1-16.2,0.1-32.3,0-48.5c0-2,0.6-2.7,2.7-2.7c6.6,0.1,13.3,0,19.9,0.1c1.9,0,2.8-0.5,2.5-2.5
		c-0.1-0.6-0.1-1.3,0-1.9c0.3-2.2-0.5-3-2.9-2.9c-9.2,0.1-18.3,0.1-27.5,0c-2.4,0-3.1,0.6-3.1,3C556.6,26.9,556.6,41.3,556.6,55.8"
		/>
	<path class="st0" d="M611.2,70.5c0-17.7,0-34.8,0-51.9c0-2,1.2-1.9,2.5-1.9c6.5,0,13.1-0.1,19.6,0c1.9,0,2.7-0.5,2.5-2.5
		c-0.1-0.6-0.1-1.3,0-1.9c0.3-2.2-0.6-3-2.9-2.9c-9.1,0.1-18.1,0.1-27.2,0c-2.3,0-2.9,0.7-2.9,2.9c0.1,29,0.1,58.1,0,87.1
		c0,2.1,0.6,2.8,2.8,2.8c9.1-0.1,18.1-0.1,27.2,0c2.5,0,3.3-0.7,3-3.1c-0.1-0.4-0.1-0.9,0-1.4c0.4-2.5-0.8-3.1-3.1-3
		c-6.2,0.1-12.3,0-18.5,0.1c-2.1,0-3.2-0.4-3-2.9c0.2-3.9,0.2-7.8,0-11.7c-0.1-2.1,0.8-2.6,2.7-2.6c4.6,0.1,9.3-0.2,13.9,0.1
		c3.3,0.2,3.1-1.6,3.1-3.8c0.1-2.3-0.1-3.7-3.1-3.6C622.3,70.7,616.9,70.5,611.2,70.5"/>
	<path class="st0" d="M315.9,85.5c0.3-2,0.6-4,0.8-6c2.3-15.6,4.6-31.1,6.9-46.7c1.1-7.2,2.3-14.3,3.4-21.4c0.2-1.5,0.8-1.9,2.3-2
		c7.6-0.4,7.6-0.4,7.9,7c0.6,14.6,1.1,29.2,1.6,43.8c0.5,13,0.9,25.9,1.6,38.9c0.1,2.7-0.8,3.7-3.4,3.2c-0.1,0-0.2,0-0.3,0
		c-4.8,0-4.2,0.4-4.3-4.2c-0.5-16.2-1.1-32.4-1.5-48.7c-0.1-5,0.3-10,0.5-14.9c0-0.9,0-1.9,0-2.8c-0.3,0-0.5,0-0.8-0.1
		c-0.8,5-1.5,10.1-2.3,15.1c-2.2,13.7-4.5,27.5-6.8,41.2c-0.6,3.5-1.2,7-2,10.4c-0.2,0.7-1.3,1.7-2,1.7c-6.3,0.5-6.2,0.4-7.3-5.7
		c-2.1-12.3-4.4-24.6-6.4-36.9c-1.2-7.7-2-15.4-3-23.1c-0.1-1.1-0.5-2.2-1.3-3.2c-0.1,0.8-0.1,1.5-0.2,2.3
		c-0.2,12.4-0.3,24.9-0.6,37.3c-0.2,9.3-0.7,18.7-1.1,28c-0.1,1.2-0.7,3.2-1.3,3.4c-1.9,0.4-3.9,0.1-5.9-0.1c-0.2,0-0.5-0.9-0.5-1.4
		c0.2-7.4,0.4-14.9,0.7-22.3c0.2-5.5,0.6-11,0.8-16.6c0.3-8.2,0.5-16.5,0.7-24.8c0.3-8.5,0.7-17,1-25.5c0-1.4,0.6-2,1.9-1.9
		c0.2,0,0.4,0,0.5,0c8.6,0.2,6.6-1.4,8.1,6.7c3.1,16.7,6.2,33.4,9,50.2c0.9,5.4,1.2,11,1.8,16.5c0.1,0.9,0.2,1.8,0.3,2.6
		C315.3,85.5,315.6,85.5,315.9,85.5"/>
	<path class="st0" d="M335.8,177.1c0-9.3-0.2-18.5,0-27.8c0.2-7.4,2.6-13.9,9.6-17.4c10.2-5.2,24.6-1.5,27,13.5
		c0.4,2.2,0.5,4.5,0.5,6.8c0,17.2,0.1,34.3-0.1,51.5c0,3.4-0.9,7-2.1,10.3c-1.7,4.5-5.1,7.7-9.8,9.2c-1.7,0.5-2.3,1.3-2.2,3.1
		c0.1,2.9,0,5.8,0,8.7c0,1.4-0.5,1.9-1.9,2c-5.9,0.4-5.9,0.4-5.9-5.6c0-0.3,0-0.6,0-0.8c0.6-4.2-0.5-6.6-5-8.4
		c-7.5-2.9-10-9.9-10.1-17.5C335.7,195.4,335.8,186.2,335.8,177.1 M364.7,177c0-9.6,0-19.2,0-28.9c0-5.9-3.7-10.5-8.5-11
		c-6.2-0.6-10.6,2.4-11.5,8.9c-0.7,5.4-0.5,11-0.5,16.6c0,14.1-0.1,28.1,0,42.2c0,8.5,6.7,13.8,14,11.2c4-1.4,6.5-5.4,6.5-10.6
		C364.7,195.8,364.7,186.4,364.7,177"/>
	<path class="st0" d="M432.5,73.6c3.2,2.2,6,5,6.3,9c0.4,6.1,0.2,12.1,0.2,18.2c0,0.4-0.5,1.2-0.8,1.2c-2.2,0.1-4.4,0.2-6.5,0
		c-0.4,0-0.9-1.4-0.9-2.2c-0.1-4.7,0-9.4-0.1-14.2c0-4.6-2.6-7.3-7.2-7.4c-3.3-0.1-6.5,0.1-9.8,0c-2-0.1-2.5,0.8-2.5,2.6
		c0.1,6.2,0,12.3,0.1,18.5c0,2-0.4,2.9-2.7,2.9c-5.7-0.1-5.7,0-5.7-5.8c0-27.9,0-55.7-0.1-83.6c0-2.8,0.8-3.6,3.5-3.4
		c5.6,0.3,11.3-0.2,16.8,0.5c9.6,1.3,15.2,7.9,15.3,17.8c0.1,10.8,0.1,21.6,0,32.4C438.4,65.1,437.2,67.5,432.5,73.6 M411.2,43.9
		v19.6c0,7.5,0,7.5,7.5,7.5c6.2,0,11.1-3.6,11.3-9.7c0.4-11.9,0.3-23.9,0-35.9c-0.2-5.1-4.5-8.4-9.9-8.7c-2-0.1-4,0.1-6-0.1
		c-2.3-0.2-3,0.8-2.9,3C411.3,27.8,411.2,35.9,411.2,43.9"/>
	<path class="st0" d="M503.7,49c0-12.2,0.1-24.3-0.1-36.5c0-2.4,0.7-3.1,3.1-3c5.4,0.2,4.9-0.8,4.9,5c0,22,0,43.9,0,65.9
		c0,2.8,0.3,5.6,1,8.3c1.3,4.8,5.4,7.7,9.8,7.4c5.4-0.4,8.9-3.6,9.5-9.1c0.2-2.1,0.4-4.2,0.4-6.2c0-22.5,0-45,0-67.5
		c0-1.2,0.4-3.3,0.8-3.4c2.2-0.3,4.5-0.1,6.7,0.1c0.2,0,0.5,1.6,0.5,2.5c0,12.3,0,24.5,0,36.8c0,12,0.1,24-0.1,35.9
		c-0.1,8-5,14.8-12,17.1c-12.5,4.2-24.6-4.4-24.7-17.6C503.6,72.8,503.7,60.9,503.7,49"/>
	<path class="st0" d="M383.8,169.2c0-12.2,0.1-24.3-0.1-36.5c0-2.4,0.7-3.1,3.1-3c5.4,0.2,4.9-0.8,4.9,5c0,22,0,43.9,0,65.9
		c0,2.8,0.3,5.6,1,8.3c1.3,4.8,5.4,7.7,9.8,7.4c5.4-0.4,8.9-3.6,9.5-9.1c0.2-2.1,0.4-4.2,0.4-6.2c0-22.5,0-45,0-67.5
		c0-1.2,0.4-3.3,0.8-3.4c2.2-0.3,4.5-0.1,6.7,0.1c0.2,0,0.5,1.6,0.5,2.5c0,12.3,0,24.5,0,36.8c0,12,0.1,24-0.1,35.9
		c-0.1,8-5,14.8-12,17.1c-12.5,4.2-24.6-4.4-24.7-17.6C383.8,193,383.8,181.1,383.8,169.2"/>
	<path class="st0" d="M389.6,101.8c-0.5,0.2-0.6,0.3-0.7,0.3c-6.8,0.6-6.9,0.6-8-6c-0.9-5.3-1.7-10.5-2.3-15.8c-0.2-2-1-2.7-2.9-2.6
		c-3.1,0.1-6.2,0.1-9.3,0c-1.5,0-2.3,0.4-2.5,2.1c-1,6.6-2.2,13.2-3.1,19.8c-0.3,2-0.9,2.6-2.9,2.6c-5.8,0-5.8,0.1-4.9-5.6
		c3.5-22.3,6.9-44.7,10.3-67c0.9-5.9,1.8-11.8,2.7-17.7c0.3-1.8,1-2.6,3-2.6c8.1,0.2,6.2-1.1,7.5,6.7c2.4,14.6,4.6,29.3,6.9,43.9
		c2.1,13.1,4.1,26.2,6.1,39.4C389.7,100.2,389.6,101,389.6,101.8 M365,71c3.5,0,6.6-0.1,9.8,0c2,0.1,2.2-0.9,2-2.5
		c-1.5-10.9-2.8-21.8-4.3-32.8c-0.3-2.5-0.7-4.9-1.1-7.3c-0.2,0-0.5,0-0.7,0C368.8,42.5,366.9,56.5,365,71"/>
	<path class="st0" d="M556.6,55.8c0-14.4,0.1-28.9-0.1-43.3c0-2.4,0.7-3.1,3.1-3c9.2,0.1,18.3,0.1,27.5,0c2.3,0,3.2,0.7,2.9,2.9
		c-0.1,0.6-0.1,1.3,0,1.9c0.3,2-0.7,2.5-2.5,2.5c-6.6-0.1-13.3,0-19.9-0.1c-2,0-2.7,0.7-2.7,2.7c0.1,16.2,0.1,32.3,0,48.5
		c0,2.2,0.8,2.8,2.9,2.7c4.9-0.1,9.8,0,14.7-0.1c2.1-0.1,2.7,0.6,2.6,2.6c-0.2,5.3,0.6,4.6-4.7,4.6c-4.3,0-8.5,0.1-12.8,0
		c-2,0-2.8,0.7-2.7,2.7c0.1,3.8,0.1,7.6,0,11.4c-0.1,2.2,0.7,3.1,3,3c6.4-0.1,12.7,0.1,19.1-0.1c2.4-0.1,3.4,0.7,3,3.1
		c-0.1,0.6-0.1,1.3,0,1.9c0.2,1.9-0.6,2.5-2.5,2.5c-9.4-0.1-18.9-0.1-28.3,0c-2.1,0-2.6-0.7-2.6-2.7C556.6,85,556.6,70.4,556.6,55.8
		"/>
	<path class="st0" d="M611.2,70.5c5.7,0,11.2,0.2,16.6-0.1c3-0.1,3.1,1.3,3.1,3.6c-0.1,2.2,0.2,4-3.1,3.8c-4.6-0.3-9.3,0-13.9-0.1
		c-1.9,0-2.8,0.5-2.7,2.6c0.1,3.9,0.2,7.8,0,11.7c-0.1,2.4,1,2.9,3,2.9c6.2-0.1,12.3,0.1,18.5-0.1c2.3,0,3.5,0.6,3.1,3
		c-0.1,0.4-0.1,0.9,0,1.4c0.4,2.4-0.5,3.1-3,3.1c-9.1-0.1-18.1-0.1-27.2,0c-2.2,0-2.8-0.7-2.8-2.8c0.1-29,0.1-58.1,0-87.1
		c0-2.2,0.6-3,2.9-2.9c9.1,0.1,18.1,0.1,27.2,0c2.3,0,3.2,0.7,2.9,2.9c-0.1,0.6-0.1,1.3,0,1.9c0.2,1.9-0.6,2.5-2.5,2.5
		c-6.5-0.1-13.1,0-19.6,0c-1.3,0-2.5-0.1-2.5,1.9C611.2,35.7,611.2,52.8,611.2,70.5"/>
	<path class="st0" d="M298.5,190.7c5.7,0,11.2,0.2,16.6-0.1c3-0.1,3.1,1.3,3.1,3.6c-0.1,2.2,0.2,4-3.1,3.8c-4.6-0.3-9.3,0-13.9-0.1
		c-1.9,0-2.8,0.5-2.7,2.6c0.1,3.9,0.2,7.8,0,11.7c-0.1,2.4,1,2.9,3,2.9c6.2-0.1,12.3,0.1,18.5-0.1c2.3,0,3.5,0.6,3.1,3
		c-0.1,0.4-0.1,0.9,0,1.4c0.4,2.4-0.5,3.1-3,3.1c-9.1-0.1-18.1-0.1-27.2,0c-2.2,0-2.8-0.7-2.8-2.8c0.1-29,0.1-58.1,0-87.1
		c0-2.2,0.6-3,2.9-2.9c9.1,0.1,18.1,0.1,27.2,0c2.3,0,3.2,0.7,2.9,2.9c-0.1,0.6-0.1,1.3,0,1.9c0.2,1.9-0.6,2.5-2.5,2.5
		c-6.5-0.1-13.1,0-19.6,0c-1.3,0-2.5-0.1-2.5,1.9C298.5,155.9,298.5,173.1,298.5,190.7"/>
	<path class="st0" d="M479.7,181.5c0-14.3,0-28.6,0-42.9c0-1.3,0-1.3-1.3-1.3c-5.9,0-11.7,0-17.6,0c-1.3,0-1.3,0-1.3-1.3
		c0-1.7,0-3.5,0-5.2c0-0.6,0.1-0.9,0.8-0.9c15.4,0,30.7,0,46.1,0c0.7,0,0.8,0.2,0.8,0.9c0,1.9,0,3.8,0,5.7c0,0.8-0.3,0.9-1,0.9
		c-6,0-11.9,0-17.9,0c-1.3,0-1.3,0-1.3,1.3c0,28.6,0,57.2,0,85.7c0,1.3,0,1.3-1.3,1.3c-1.7,0-3.4,0-5.2,0c-0.8,0-1-0.3-1-1
		C479.7,210.3,479.7,195.9,479.7,181.5"/>
	<path class="st0" d="M532.9,195.8c0,9.6,0,19.2,0,28.8c0,0.7,0.2,1,1,1c1.8-0.1,3.6,0,5.3,0c1.1,0,1.1,0,1.1-1.2
		c0-16.5,0-33,0-49.5c0-2.7,0-5.4,0-8.2c0-0.5,0.1-0.8,0.6-1c4.6-1.4,7.9-4.3,10.6-8.2c2.7-3.9,4.5-8.2,4.7-12.9
		c0.2-4.7,0.1-9.4,0.1-14.1c0-0.7-0.2-0.8-0.9-0.8c-1.9,0-3.8,0-5.8,0c-0.7,0-0.8,0.2-0.8,0.9c0,2.9,0,5.9,0,8.8
		c0,1.9,0.1,3.9-0.2,5.7c-0.7,4.6-2.8,8.5-6.3,11.5c-3.4,2.9-7.2,3.1-10.6,0.6c-4.8-3.5-7.2-8.3-7.4-14.1c-0.1-4.2,0-8.3,0-12.5
		c0-0.7-0.2-0.9-0.9-0.9c-1.9,0-3.7,0.1-5.6,0c-0.8,0-1,0.3-1,1c0,4,0,7.9,0,11.9c0,5.1,1.5,9.8,4.2,14c2.6,4.1,6,7.3,10.7,8.8
		c0.9,0.3,1.1,0.7,1.1,1.6C532.9,176.8,532.9,186.3,532.9,195.8"/>
	<path class="st0" d="M532.9,195.8c0-9.5,0-19.1,0-28.6c0-0.9-0.2-1.3-1.1-1.6c-4.7-1.6-8.1-4.8-10.7-8.8c-2.8-4.3-4.3-8.9-4.2-14
		c0-4,0-7.9,0-11.9c0-0.7,0.2-1,1-1c1.9,0.1,3.7,0,5.6,0c0.7,0,0.9,0.2,0.9,0.9c0,4.2-0.1,8.3,0,12.5c0.2,5.9,2.6,10.7,7.4,14.1
		c3.5,2.5,7.2,2.2,10.6-0.6c3.6-3,5.7-6.9,6.3-11.5c0.3-1.9,0.2-3.8,0.2-5.7c0-2.9,0-5.9,0-8.8c0-0.6,0.1-0.9,0.8-0.9
		c1.9,0,3.8,0,5.8,0c0.6,0,0.9,0.1,0.9,0.8c0,4.7,0.1,9.4-0.1,14.1c-0.2,4.7-2,9-4.7,12.9c-2.7,3.8-6.1,6.8-10.6,8.2
		c-0.6,0.2-0.6,0.5-0.6,1c0,2.7,0,5.4,0,8.2c0,16.5,0,33,0,49.5c0,1.2,0,1.2-1.1,1.2c-1.8,0-3.6,0-5.3,0c-0.8,0-1-0.3-1-1
		C532.9,215,532.9,205.4,532.9,195.8"/>
	<rect x="438.8" y="129.6" class="st0" width="7.5" height="95.8"/>
	<path class="st0" d="M452.2,52.9c0-9.3-0.2-18.5,0-27.8c0.2-7.4,2.6-13.9,9.6-17.4c10.2-5.2,24.6-1.5,27,13.5
		c0.4,2.2,0.5,4.5,0.5,6.8c0,17.2,0.1,34.3-0.1,51.5c0,3.4-0.9,7-2.1,10.3c-1.7,4.5-5.1,7.7-9.8,9.2c-1.7,0.5-2.3,1.3-2.2,3.1
		c0.1,2.9,0,5.8,0,8.7c0,1.4-0.5,1.9-1.9,2c-5.9,0.4-5.9,0.4-5.9-5.6c0-0.3,0-0.6,0-0.8c0.6-4.2-0.5-6.6-5-8.4
		c-7.5-2.9-10-9.9-10.1-17.5C452,71.2,452.2,62,452.2,52.9 M481,52.8c0-9.6,0-19.2,0-28.9c0-5.9-3.7-10.5-8.5-11
		c-6.2-0.6-10.6,2.4-11.5,8.9c-0.7,5.4-0.5,11-0.5,16.6c0,14.1-0.1,28.1,0,42.2c0,8.5,6.7,13.8,14,11.2c4-1.4,6.5-5.4,6.5-10.6
		C481.1,71.6,481,62.2,481,52.8"/>
</g>
</svg>
